<svg width="36" height="36" viewBox="0 0 36 36" fill="none" xmlns="http://www.w3.org/2000/svg">
<rect width="36" height="36" rx="18" fill="#FD810A"/>
<path d="M18 17C18.5523 17 19 16.5523 19 16C19 15.4477 18.5523 15 18 15C17.4477 15 17 15.4477 17 16C17 16.5523 17.4477 17 18 17Z" fill="white"/>
<path d="M18 10C14.6918 10 12 12.6051 12 15.806C12 17.3304 12.6866 19.3576 14.0408 21.8314C15.1283 23.8176 16.3864 25.6136 17.0408 26.5073C17.1513 26.66 17.2959 26.7842 17.4628 26.8698C17.6296 26.9554 17.8141 27 18.0011 27C18.1882 27 18.3726 26.9554 18.5395 26.8698C18.7063 26.7842 18.8509 26.66 18.9615 26.5073C19.6148 25.6136 20.874 23.8176 21.9615 21.8314C23.3134 19.3583 24 17.3311 24 15.806C24 12.6051 21.3083 10 18 10ZM18 18.5003C17.5253 18.5003 17.0613 18.3579 16.6666 18.091C16.272 17.8241 15.9643 17.4448 15.7827 17.0011C15.601 16.5573 15.5535 16.069 15.6461 15.5978C15.7387 15.1267 15.9673 14.694 16.3029 14.3543C16.6386 14.0147 17.0662 13.7834 17.5318 13.6897C17.9973 13.5959 18.4799 13.644 18.9184 13.8279C19.357 14.0117 19.7318 14.323 19.9955 14.7224C20.2592 15.1218 20.4 15.5913 20.4 16.0717C20.3993 16.7156 20.1462 17.3329 19.6963 17.7882C19.2464 18.2435 18.6363 18.4996 18 18.5003Z" fill="white"/>
</svg>
