<svg width="195" height="39" viewBox="0 0 195 39" fill="none" xmlns="http://www.w3.org/2000/svg">
<rect x="156" width="38.384" height="38.384" rx="19.192" fill="#FD810A"/>
<path d="M172.8 21.2857L177.212 18.5L172.8 15.7143V21.2857ZM182.626 14.015C182.736 14.4514 182.813 15.0364 182.864 15.7793C182.924 16.5221 182.949 17.1629 182.949 17.72L183 18.5C183 20.5336 182.864 22.0286 182.626 22.985C182.413 23.8207 181.921 24.3593 181.156 24.5914C180.756 24.7121 180.025 24.7957 178.903 24.8514C177.798 24.9164 176.786 24.9443 175.852 24.9443L174.5 25C170.938 25 168.72 24.8514 167.845 24.5914C167.08 24.3593 166.587 23.8207 166.374 22.985C166.264 22.5486 166.187 21.9636 166.136 21.2207C166.077 20.4779 166.051 19.8371 166.051 19.28L166 18.5C166 16.4664 166.136 14.9714 166.374 14.015C166.587 13.1793 167.08 12.6407 167.845 12.4086C168.244 12.2879 168.975 12.2043 170.097 12.1486C171.202 12.0836 172.214 12.0557 173.148 12.0557L174.5 12C178.062 12 180.28 12.1486 181.156 12.4086C181.921 12.6407 182.413 13.1793 182.626 14.015Z" fill="white"/>
<g clip-path="url(#clip0_141_15439)">
<rect x="104" width="38.384" height="38.384" rx="19.192" fill="#FD810A"/>
<path d="M123.5 26.9992C128.195 26.9992 132 23.1939 132 18.4996C132 13.8053 128.195 10 123.5 10C118.805 10 115 13.8053 115 18.4996C115 21.9045 117.003 24.842 119.894 26.1985L121.841 17.0478C121.891 16.8304 122.024 16.6413 122.212 16.5213C122.4 16.4013 122.628 16.3601 122.846 16.4065C123.064 16.4529 123.256 16.5832 123.379 16.7694C123.501 16.9555 123.546 17.1825 123.503 17.4014C123.271 18.4996 123.067 18.9246 123.076 19.4345C123.09 20.2335 123.308 20.6602 123.519 20.8812C123.734 21.1064 124.044 21.2279 124.449 21.2211C124.863 21.2126 125.332 21.0673 125.747 20.8055C126.553 20.2989 126.9 19.4303 126.9 18.4996C126.899 17.9945 126.786 17.4959 126.569 17.04C126.352 16.5841 126.035 16.1824 125.643 15.864C125.251 15.5456 124.793 15.3186 124.302 15.1995C123.811 15.0803 123.3 15.072 122.806 15.1752C122.311 15.2784 121.846 15.4904 121.444 15.7959C121.041 16.1014 120.712 16.4927 120.48 16.9413C120.248 17.3899 120.119 17.8845 120.102 18.3893C120.085 18.8941 120.181 19.3964 120.382 19.8595C120.464 20.0646 120.463 20.2936 120.38 20.4979C120.296 20.7023 120.136 20.8661 119.933 20.9545C119.731 21.0429 119.502 21.049 119.295 20.9715C119.088 20.8941 118.92 20.7391 118.825 20.5395C118.487 19.7634 118.347 18.9153 118.418 18.0717C118.489 17.2281 118.77 16.4155 119.234 15.7073C119.697 14.9991 120.33 14.4174 121.075 14.0149C121.82 13.6124 122.653 13.4016 123.5 13.4016C124.347 13.4016 125.18 13.6124 125.925 14.0149C126.67 14.4174 127.303 14.9991 127.766 15.7073C128.23 16.4155 128.511 17.2281 128.582 18.0717C128.653 18.9153 128.513 19.7634 128.175 20.5395C127.862 21.2602 127.291 21.8433 126.652 22.2453C126.01 22.6491 125.243 22.9075 124.48 22.9211C123.784 22.9338 123.059 22.7409 122.475 22.2343L121.511 26.7663C122.148 26.9193 122.815 27 123.499 27L123.5 26.9992Z" fill="white"/>
</g>
<rect x="52" width="38.384" height="38.384" rx="19.192" fill="#FD810A"/>
<path d="M80 13.662C79.3633 13.9472 78.6882 14.1346 77.9969 14.2178C78.7249 13.7761 79.2697 13.0814 79.5297 12.2631C78.8458 12.6753 78.0961 12.9642 77.3155 13.1205C76.7906 12.5516 76.0949 12.1744 75.3365 12.0473C74.5781 11.9203 73.7996 12.0506 73.1218 12.4181C72.4441 12.7855 71.9052 13.3694 71.5889 14.0791C71.2726 14.7887 71.1967 15.5844 71.3728 16.3423C69.9859 16.272 68.6291 15.907 67.3905 15.271C66.1519 14.6351 65.0592 13.7423 64.1834 12.6508C63.8734 13.1901 63.7105 13.8032 63.7114 14.4273C63.7114 15.6521 64.3276 16.7342 65.2625 17.3678C64.7088 17.3501 64.1672 17.1986 63.683 16.926V16.969C63.683 17.7849 63.9616 18.5757 64.4715 19.2073C64.9815 19.8388 65.6914 20.2723 66.4809 20.4341C65.9669 20.5754 65.4279 20.5962 64.9047 20.4949C65.1273 21.1972 65.5612 21.8114 66.1456 22.2514C66.7301 22.6915 67.4357 22.9353 68.1638 22.9489C67.4402 23.5245 66.6117 23.95 65.7257 24.201C64.8396 24.4521 63.9134 24.5237 63 24.4119C64.5943 25.4504 66.4501 26.0017 68.3456 26C74.762 26 78.2696 20.6166 78.2696 15.9478C78.2696 15.7957 78.2662 15.642 78.2596 15.4908C78.9421 14.991 79.5311 14.372 79.9992 13.6628L80 13.662Z" fill="white"/>
<rect width="38.384" height="38.384" rx="19.192" fill="#FD810A"/>
<path d="M28 18.5213C28 13.8175 24.192 10 19.5 10C14.808 10 11 13.8175 11 18.5213C11 22.6456 13.924 26.0797 17.8 26.8722V21.0777H16.1V18.5213H17.8V16.391C17.8 14.7464 19.1345 13.4085 20.775 13.4085H22.9V15.9649H21.2C20.7325 15.9649 20.35 16.3484 20.35 16.817V18.5213H22.9V21.0777H20.35V27C24.6425 26.5739 28 22.9439 28 18.5213Z" fill="white"/>
<defs>
<clipPath id="clip0_141_15439">
<rect x="104" width="38.384" height="38.384" rx="19.192" fill="white"/>
</clipPath>
</defs>
</svg>
