<svg width="17" height="17" viewBox="0 0 17 17" fill="none" xmlns="http://www.w3.org/2000/svg">
<path d="M6.12424 2.26667C6.25048 2.26667 6.37156 2.31682 6.46082 2.40608C6.55009 2.49535 6.60024 2.61642 6.60024 2.74267V3.63279H11.7118V2.74879C11.7118 2.62254 11.762 2.50147 11.8512 2.4122C11.9405 2.32294 12.0616 2.27279 12.1878 2.27279C12.314 2.27279 12.4351 2.32294 12.5244 2.4122C12.6137 2.50147 12.6638 2.62254 12.6638 2.74879V3.63279H14.5066C14.8672 3.63279 15.213 3.77598 15.468 4.03088C15.7231 4.28578 15.8664 4.63153 15.8666 4.99211V14.5073C15.8664 14.8679 15.7231 15.2137 15.468 15.4686C15.213 15.7235 14.8672 15.8667 14.5066 15.8667H3.6266C3.26602 15.8667 2.92021 15.7235 2.66518 15.4686C2.41015 15.2137 2.26678 14.8679 2.2666 14.5073V4.99211C2.26678 4.63153 2.41015 4.28578 2.66518 4.03088C2.92021 3.77598 3.26602 3.63279 3.6266 3.63279H5.64824V2.74199C5.64842 2.61586 5.69865 2.49496 5.7879 2.40584C5.87715 2.31672 5.99812 2.26667 6.12424 2.26667ZM3.2186 7.53123V14.5073C3.2186 14.5609 3.22915 14.614 3.24966 14.6635C3.27016 14.713 3.30022 14.758 3.3381 14.7958C3.37599 14.8337 3.42097 14.8638 3.47047 14.8843C3.51997 14.9048 3.57302 14.9153 3.6266 14.9153H14.5066C14.5602 14.9153 14.6132 14.9048 14.6627 14.8843C14.7122 14.8638 14.7572 14.8337 14.7951 14.7958C14.833 14.758 14.863 14.713 14.8835 14.6635C14.904 14.614 14.9146 14.5609 14.9146 14.5073V7.54075L3.2186 7.53123ZM6.80016 12.2076V13.3405H5.6666V12.2076H6.80016ZM9.63304 12.2076V13.3405H8.50016V12.2076H9.63304ZM12.4666 12.2076V13.3405H11.333V12.2076H12.4666ZM6.80016 9.50323V10.6361H5.6666V9.50323H6.80016ZM9.63304 9.50323V10.6361H8.50016V9.50323H9.63304ZM12.4666 9.50323V10.6361H11.333V9.50323H12.4666ZM5.64824 4.58411H3.6266C3.57302 4.58411 3.51997 4.59466 3.47047 4.61516C3.42097 4.63567 3.37599 4.66572 3.3381 4.70361C3.30022 4.74149 3.27016 4.78647 3.24966 4.83597C3.22915 4.88547 3.2186 4.93853 3.2186 4.99211V6.57991L14.9146 6.58943V4.99211C14.9146 4.93853 14.904 4.88547 14.8835 4.83597C14.863 4.78647 14.833 4.74149 14.7951 4.70361C14.7572 4.66572 14.7122 4.63567 14.6627 4.61516C14.6132 4.59466 14.5602 4.58411 14.5066 4.58411H12.6638V5.21583C12.6638 5.34207 12.6137 5.46314 12.5244 5.55241C12.4351 5.64168 12.314 5.69183 12.1878 5.69183C12.0616 5.69183 11.9405 5.64168 11.8512 5.55241C11.762 5.46314 11.7118 5.34207 11.7118 5.21583V4.58411H6.60024V5.20971C6.60024 5.33595 6.55009 5.45702 6.46082 5.54629C6.37156 5.63556 6.25048 5.68571 6.12424 5.68571C5.998 5.68571 5.87693 5.63556 5.78766 5.54629C5.69839 5.45702 5.64824 5.33595 5.64824 5.20971V4.58411Z" fill="#FD810A"/>
</svg>
